<svg width="110" height="23" viewBox="0 0 110 23" fill="none" xmlns="http://www.w3.org/2000/svg">
<path d="M92.4614 22.6956V0.695557H95.7003L106.532 17.0428V0.695557H109.771V22.6956H106.532L95.7003 6.33306V22.6956H92.4614Z" fill="white"/>
<path d="M74.7368 22.6956V0.695557H88.7924V3.70528H77.9299V9.8775H86.959V12.8872H77.9299V19.6858H88.7924V22.6956H74.7368Z" fill="white"/>
<path d="M66.9561 22.6956V0.695557H70.1491V22.6956H66.9561Z" fill="white"/>
<path d="M40.6602 22.6956V0.695557H43.5477L51.5227 17.2414L59.4518 0.695557H62.3699V22.6803H59.3449V7.63167L52.2407 22.6956H50.7893L43.6699 7.63167V22.6956H40.6602Z" fill="white"/>
<path d="M19.021 22.6956L26.171 0.695557H30.7696L37.9196 22.6956H34.6043L28.0196 2.62056H28.8446L22.3363 22.6956H19.021ZM22.7335 17.7303V14.7358H34.2224V17.7303H22.7335Z" fill="white"/>
<path d="M0.0488281 22.6956V0.695557H6.93911C7.14281 0.695557 7.51966 0.700649 8.06966 0.710835C8.62985 0.72102 9.16457 0.76176 9.67383 0.833056C11.3951 1.04694 12.8414 1.66315 14.0127 2.68167C15.1942 3.70019 16.0854 4.9937 16.6863 6.56222C17.2873 8.12056 17.5877 9.83167 17.5877 11.6956C17.5877 13.5696 17.2873 15.2909 16.6863 16.8594C16.0854 18.4178 15.1942 19.7062 14.0127 20.7247C12.8414 21.7331 11.3951 22.3442 9.67383 22.5581C9.16457 22.6294 8.62985 22.6701 8.06966 22.6803C7.51966 22.6905 7.14281 22.6956 6.93911 22.6956H0.0488281ZM3.31827 19.6553H6.93911C7.2854 19.6553 7.6979 19.6451 8.17661 19.6247C8.65531 19.6044 9.078 19.5636 9.44466 19.5025C10.565 19.2886 11.4715 18.8048 12.1641 18.0511C12.8669 17.2872 13.3812 16.3502 13.7072 15.24C14.0331 14.1298 14.1961 12.9483 14.1961 11.6956C14.1961 10.402 14.028 9.20528 13.6919 8.10528C13.3558 6.99509 12.8363 6.06824 12.1336 5.32472C11.441 4.57102 10.5447 4.09232 9.44466 3.88861C9.078 3.81732 8.65022 3.77657 8.16133 3.76639C7.68262 3.74602 7.27522 3.73583 6.93911 3.73583H3.31827V19.6553Z" fill="white"/>
</svg>
